<svg xmlns="http://www.w3.org/2000/svg" xmlns:xlink="http://www.w3.org/1999/xlink" width="400" zoomAndPan="magnify" viewBox="0 0 300 37.5" height="50" preserveAspectRatio="xMidYMid meet" version="1.0"><defs><g/></defs><g fill="#335eea" fill-opacity="1"><g transform="translate(32.082211, 27.908611)"><g><path d="M 2.328125 0 L 2.328125 -24.28125 L 18.5 -24.28125 L 18.5 -20.25 L 6.828125 -20.25 L 6.828125 -14.453125 L 17.734375 -14.453125 L 17.734375 -10.453125 L 6.828125 -10.453125 L 6.828125 -4.046875 L 18.5 -4.046875 L 18.5 0 Z M 2.328125 0 "/></g></g></g><g fill="#335eea" fill-opacity="1"><g transform="translate(52.215323, 27.908611)"><g><path d="M 1.421875 0 L 1.421875 -3.28125 C 2.171875 -3.832031 3.046875 -4.46875 4.046875 -5.1875 C 5.046875 -5.90625 6.0625 -6.691406 7.09375 -7.546875 C 8.125 -8.410156 9.082031 -9.332031 9.96875 -10.3125 C 10.851562 -11.289062 11.566406 -12.3125 12.109375 -13.375 C 12.648438 -14.445312 12.921875 -15.539062 12.921875 -16.65625 C 12.921875 -17.695312 12.640625 -18.570312 12.078125 -19.28125 C 11.523438 -19.988281 10.660156 -20.34375 9.484375 -20.34375 C 8.503906 -20.34375 7.726562 -20.097656 7.15625 -19.609375 C 6.59375 -19.128906 6.179688 -18.507812 5.921875 -17.75 C 5.671875 -17 5.519531 -16.21875 5.46875 -15.40625 L 1.21875 -15.71875 C 1.21875 -16.8125 1.394531 -17.878906 1.75 -18.921875 C 2.113281 -19.960938 2.648438 -20.90625 3.359375 -21.75 C 4.066406 -22.601562 4.941406 -23.285156 5.984375 -23.796875 C 7.035156 -24.304688 8.242188 -24.5625 9.609375 -24.5625 C 11.097656 -24.5625 12.414062 -24.234375 13.5625 -23.578125 C 14.71875 -22.929688 15.617188 -22.023438 16.265625 -20.859375 C 16.921875 -19.703125 17.25 -18.347656 17.25 -16.796875 C 17.25 -15.585938 17.046875 -14.410156 16.640625 -13.265625 C 16.234375 -12.128906 15.65625 -11.039062 14.90625 -10 C 14.164062 -8.957031 13.285156 -7.96875 12.265625 -7.03125 C 11.242188 -6.101562 10.101562 -5.238281 8.84375 -4.4375 C 7.59375 -3.632812 6.269531 -2.910156 4.875 -2.265625 L 6.03125 -4.046875 L 18.1875 -4.046875 L 18.1875 0 Z M 1.421875 0 "/></g></g></g><g fill="#335eea" fill-opacity="1"><g transform="translate(71.721453, 27.908611)"><g/></g></g><g fill="#335eea" fill-opacity="1"><g transform="translate(80.777866, 27.908611)"><g><path d="M 7.765625 0 L 0.453125 -24.28125 L 5.1875 -24.28125 L 10.203125 -6.90625 L 14.84375 -22.890625 L 19.296875 -22.890625 L 23.90625 -6.90625 L 28.953125 -24.28125 L 33.65625 -24.28125 L 26.34375 0 L 21.984375 0 L 16.6875 -17.484375 L 17.421875 -17.484375 L 12.15625 0 Z M 7.765625 0 "/></g></g></g><g fill="#335eea" fill-opacity="1"><g transform="translate(114.878747, 27.908611)"><g><path d="M 9.796875 0.34375 C 8.304688 0.34375 7.023438 0.101562 5.953125 -0.375 C 4.890625 -0.863281 4.015625 -1.519531 3.328125 -2.34375 C 2.640625 -3.175781 2.132812 -4.117188 1.8125 -5.171875 C 1.488281 -6.234375 1.328125 -7.34375 1.328125 -8.5 C 1.328125 -9.613281 1.488281 -10.703125 1.8125 -11.765625 C 2.132812 -12.835938 2.617188 -13.800781 3.265625 -14.65625 C 3.921875 -15.519531 4.765625 -16.210938 5.796875 -16.734375 C 6.835938 -17.265625 8.078125 -17.53125 9.515625 -17.53125 C 10.859375 -17.53125 12.03125 -17.300781 13.03125 -16.84375 C 14.03125 -16.394531 14.851562 -15.769531 15.5 -14.96875 C 16.15625 -14.164062 16.648438 -13.226562 16.984375 -12.15625 C 17.316406 -11.09375 17.484375 -9.957031 17.484375 -8.75 C 17.484375 -8.582031 17.476562 -8.351562 17.46875 -8.0625 C 17.457031 -7.769531 17.429688 -7.460938 17.390625 -7.140625 L 5.640625 -7.140625 C 5.753906 -5.910156 6.210938 -4.984375 7.015625 -4.359375 C 7.816406 -3.734375 8.820312 -3.421875 10.03125 -3.421875 C 10.914062 -3.421875 11.773438 -3.578125 12.609375 -3.890625 C 13.453125 -4.203125 14.195312 -4.644531 14.84375 -5.21875 L 17 -2.296875 C 16.1875 -1.671875 15.421875 -1.160156 14.703125 -0.765625 C 13.984375 -0.367188 13.234375 -0.0859375 12.453125 0.078125 C 11.679688 0.253906 10.796875 0.34375 9.796875 0.34375 Z M 13.203125 -9.296875 C 13.253906 -9.484375 13.296875 -9.671875 13.328125 -9.859375 C 13.359375 -10.046875 13.375 -10.222656 13.375 -10.390625 C 13.375 -10.867188 13.28125 -11.320312 13.09375 -11.75 C 12.914062 -12.1875 12.660156 -12.566406 12.328125 -12.890625 C 12.003906 -13.210938 11.613281 -13.460938 11.15625 -13.640625 C 10.707031 -13.816406 10.191406 -13.90625 9.609375 -13.90625 C 8.753906 -13.90625 8.035156 -13.726562 7.453125 -13.375 C 6.867188 -13.03125 6.429688 -12.582031 6.140625 -12.03125 C 5.859375 -11.488281 5.679688 -10.925781 5.609375 -10.34375 L 14.671875 -10.34375 Z M 13.203125 -9.296875 "/></g></g></g><g fill="#335eea" fill-opacity="1"><g transform="translate(133.723054, 27.908611)"><g><path d="M 11.359375 0.34375 C 10.492188 0.34375 9.660156 0.175781 8.859375 -0.15625 C 8.066406 -0.488281 7.367188 -1.054688 6.765625 -1.859375 C 6.160156 -2.660156 5.707031 -3.738281 5.40625 -5.09375 L 6.453125 -4.59375 L 6.453125 0 L 2.125 0 L 2.125 -24.28125 L 6.453125 -24.28125 L 6.453125 -12.546875 L 5.546875 -12.265625 C 5.753906 -13.453125 6.140625 -14.429688 6.703125 -15.203125 C 7.273438 -15.984375 7.96875 -16.566406 8.78125 -16.953125 C 9.59375 -17.335938 10.453125 -17.53125 11.359375 -17.53125 C 12.703125 -17.53125 13.929688 -17.175781 15.046875 -16.46875 C 16.160156 -15.757812 17.039062 -14.738281 17.6875 -13.40625 C 18.34375 -12.082031 18.671875 -10.484375 18.671875 -8.609375 C 18.671875 -6.910156 18.378906 -5.378906 17.796875 -4.015625 C 17.222656 -2.660156 16.382812 -1.59375 15.28125 -0.8125 C 14.175781 -0.0390625 12.867188 0.34375 11.359375 0.34375 Z M 10.171875 -3.625 C 11.035156 -3.625 11.773438 -3.828125 12.390625 -4.234375 C 13.003906 -4.640625 13.484375 -5.210938 13.828125 -5.953125 C 14.179688 -6.703125 14.359375 -7.585938 14.359375 -8.609375 C 14.359375 -9.628906 14.179688 -10.503906 13.828125 -11.234375 C 13.484375 -11.960938 13.003906 -12.53125 12.390625 -12.9375 C 11.773438 -13.34375 11.035156 -13.546875 10.171875 -13.546875 C 9.335938 -13.546875 8.613281 -13.34375 8 -12.9375 C 7.382812 -12.53125 6.90625 -11.957031 6.5625 -11.21875 C 6.226562 -10.476562 6.0625 -9.609375 6.0625 -8.609375 C 6.0625 -7.609375 6.226562 -6.734375 6.5625 -5.984375 C 6.90625 -5.242188 7.382812 -4.664062 8 -4.25 C 8.613281 -3.832031 9.335938 -3.625 10.171875 -3.625 Z M 10.171875 -3.625 "/></g></g></g><g fill="#335eea" fill-opacity="1"><g transform="translate(153.716826, 27.908611)"><g/></g></g><g fill="#335eea" fill-opacity="1"><g transform="translate(162.773248, 27.908611)"><g><path d="M 2.328125 0 L 2.328125 -24.28125 L 9.40625 -24.28125 C 13.445312 -24.28125 16.570312 -23.210938 18.78125 -21.078125 C 20.988281 -18.941406 22.09375 -15.898438 22.09375 -11.953125 C 22.09375 -8.097656 21 -5.140625 18.8125 -3.078125 C 16.632812 -1.023438 13.488281 0 9.375 0 Z M 6.828125 -4.140625 L 8.921875 -4.140625 C 10.753906 -4.140625 12.304688 -4.375 13.578125 -4.84375 C 14.859375 -5.3125 15.84375 -6.125 16.53125 -7.28125 C 17.21875 -8.445312 17.5625 -10.0625 17.5625 -12.125 C 17.5625 -14.125 17.226562 -15.707031 16.5625 -16.875 C 15.90625 -18.050781 14.96875 -18.890625 13.75 -19.390625 C 12.53125 -19.890625 11.0625 -20.140625 9.34375 -20.140625 L 6.828125 -20.140625 Z M 6.828125 -4.140625 "/></g></g></g><g fill="#335eea" fill-opacity="1"><g transform="translate(186.250267, 27.908611)"><g><path d="M 9.796875 0.34375 C 8.304688 0.34375 7.023438 0.101562 5.953125 -0.375 C 4.890625 -0.863281 4.015625 -1.519531 3.328125 -2.34375 C 2.640625 -3.175781 2.132812 -4.117188 1.8125 -5.171875 C 1.488281 -6.234375 1.328125 -7.34375 1.328125 -8.5 C 1.328125 -9.613281 1.488281 -10.703125 1.8125 -11.765625 C 2.132812 -12.835938 2.617188 -13.800781 3.265625 -14.65625 C 3.921875 -15.519531 4.765625 -16.210938 5.796875 -16.734375 C 6.835938 -17.265625 8.078125 -17.53125 9.515625 -17.53125 C 10.859375 -17.53125 12.03125 -17.300781 13.03125 -16.84375 C 14.03125 -16.394531 14.851562 -15.769531 15.5 -14.96875 C 16.15625 -14.164062 16.648438 -13.226562 16.984375 -12.15625 C 17.316406 -11.09375 17.484375 -9.957031 17.484375 -8.75 C 17.484375 -8.582031 17.476562 -8.351562 17.46875 -8.0625 C 17.457031 -7.769531 17.429688 -7.460938 17.390625 -7.140625 L 5.640625 -7.140625 C 5.753906 -5.910156 6.210938 -4.984375 7.015625 -4.359375 C 7.816406 -3.734375 8.820312 -3.421875 10.03125 -3.421875 C 10.914062 -3.421875 11.773438 -3.578125 12.609375 -3.890625 C 13.453125 -4.203125 14.195312 -4.644531 14.84375 -5.21875 L 17 -2.296875 C 16.1875 -1.671875 15.421875 -1.160156 14.703125 -0.765625 C 13.984375 -0.367188 13.234375 -0.0859375 12.453125 0.078125 C 11.679688 0.253906 10.796875 0.34375 9.796875 0.34375 Z M 13.203125 -9.296875 C 13.253906 -9.484375 13.296875 -9.671875 13.328125 -9.859375 C 13.359375 -10.046875 13.375 -10.222656 13.375 -10.390625 C 13.375 -10.867188 13.28125 -11.320312 13.09375 -11.75 C 12.914062 -12.1875 12.660156 -12.566406 12.328125 -12.890625 C 12.003906 -13.210938 11.613281 -13.460938 11.15625 -13.640625 C 10.707031 -13.816406 10.191406 -13.90625 9.609375 -13.90625 C 8.753906 -13.90625 8.035156 -13.726562 7.453125 -13.375 C 6.867188 -13.03125 6.429688 -12.582031 6.140625 -12.03125 C 5.859375 -11.488281 5.679688 -10.925781 5.609375 -10.34375 L 14.671875 -10.34375 Z M 13.203125 -9.296875 "/></g></g></g><g fill="#335eea" fill-opacity="1"><g transform="translate(205.094574, 27.908611)"><g><path d="M 8.078125 0.34375 C 6.804688 0.34375 5.691406 0.160156 4.734375 -0.203125 C 3.785156 -0.578125 2.976562 -1.039062 2.3125 -1.59375 C 1.65625 -2.15625 1.128906 -2.691406 0.734375 -3.203125 L 3.6875 -5.78125 C 4.082031 -5.132812 4.644531 -4.535156 5.375 -3.984375 C 6.113281 -3.441406 7.03125 -3.171875 8.125 -3.171875 C 8.976562 -3.171875 9.644531 -3.335938 10.125 -3.671875 C 10.601562 -4.015625 10.84375 -4.441406 10.84375 -4.953125 C 10.84375 -5.367188 10.691406 -5.707031 10.390625 -5.96875 C 10.085938 -6.238281 9.675781 -6.460938 9.15625 -6.640625 C 8.644531 -6.816406 8.078125 -6.984375 7.453125 -7.140625 C 6.804688 -7.328125 6.132812 -7.535156 5.4375 -7.765625 C 4.738281 -8.003906 4.097656 -8.3125 3.515625 -8.6875 C 2.929688 -9.070312 2.457031 -9.566406 2.09375 -10.171875 C 1.738281 -10.773438 1.5625 -11.53125 1.5625 -12.4375 C 1.5625 -13.945312 2.15625 -15.171875 3.34375 -16.109375 C 4.53125 -17.054688 6.097656 -17.53125 8.046875 -17.53125 C 9.421875 -17.53125 10.664062 -17.253906 11.78125 -16.703125 C 12.894531 -16.160156 13.773438 -15.378906 14.421875 -14.359375 L 11.75 -12.234375 C 11.320312 -12.898438 10.765625 -13.398438 10.078125 -13.734375 C 9.398438 -14.078125 8.675781 -14.25 7.90625 -14.25 C 7.238281 -14.25 6.6875 -14.117188 6.25 -13.859375 C 5.820312 -13.609375 5.609375 -13.265625 5.609375 -12.828125 C 5.609375 -12.523438 5.707031 -12.269531 5.90625 -12.0625 C 6.101562 -11.851562 6.425781 -11.671875 6.875 -11.515625 C 7.332031 -11.367188 7.929688 -11.203125 8.671875 -11.015625 C 9.367188 -10.847656 10.085938 -10.644531 10.828125 -10.40625 C 11.578125 -10.175781 12.273438 -9.863281 12.921875 -9.46875 C 13.578125 -9.082031 14.101562 -8.5625 14.5 -7.90625 C 14.894531 -7.257812 15.09375 -6.4375 15.09375 -5.4375 C 15.09375 -4.300781 14.800781 -3.296875 14.21875 -2.421875 C 13.632812 -1.546875 12.816406 -0.863281 11.765625 -0.375 C 10.722656 0.101562 9.492188 0.34375 8.078125 0.34375 Z M 8.078125 0.34375 "/></g></g></g><g fill="#335eea" fill-opacity="1"><g transform="translate(221.535453, 27.908611)"><g><path d="M 2.09375 0 L 2.09375 -17.171875 L 6.40625 -17.171875 L 6.40625 0 Z M 1.953125 -19.828125 L 1.953125 -24.28125 L 6.578125 -24.28125 L 6.578125 -19.828125 Z M 1.953125 -19.828125 "/></g></g></g><g fill="#335eea" fill-opacity="1"><g transform="translate(230.069383, 27.908611)"><g><path d="M 9.375 7.453125 C 6.820312 7.453125 4.804688 7 3.328125 6.09375 C 1.847656 5.1875 1.109375 3.929688 1.109375 2.328125 C 1.109375 2.191406 1.117188 2.023438 1.140625 1.828125 C 1.171875 1.628906 1.207031 1.4375 1.25 1.25 L 6.0625 -1.734375 L 7.140625 -0.515625 L 4.953125 2.15625 C 4.921875 2.226562 4.90625 2.285156 4.90625 2.328125 C 4.90625 2.378906 4.90625 2.425781 4.90625 2.46875 C 4.90625 3.125 5.3125 3.625 6.125 3.96875 C 6.945312 4.320312 8.03125 4.5 9.375 4.5 C 10.507812 4.5 11.378906 4.351562 11.984375 4.0625 C 12.585938 3.769531 12.890625 3.34375 12.890625 2.78125 C 12.890625 2.476562 12.804688 2.234375 12.640625 2.046875 C 12.484375 1.867188 12.21875 1.71875 11.84375 1.59375 C 11.476562 1.476562 11 1.375 10.40625 1.28125 C 9.8125 1.195312 9.097656 1.09375 8.265625 0.96875 C 7.191406 0.851562 6.144531 0.640625 5.125 0.328125 C 4.101562 0.015625 3.253906 -0.445312 2.578125 -1.0625 C 1.898438 -1.675781 1.5625 -2.492188 1.5625 -3.515625 C 1.5625 -4.421875 1.875 -5.25 2.5 -6 C 3.132812 -6.757812 3.960938 -7.382812 4.984375 -7.875 L 7.078125 -6.203125 C 6.441406 -6.109375 5.96875 -5.898438 5.65625 -5.578125 C 5.34375 -5.253906 5.1875 -4.867188 5.1875 -4.421875 C 5.1875 -4.054688 5.335938 -3.757812 5.640625 -3.53125 C 5.941406 -3.3125 6.367188 -3.144531 6.921875 -3.03125 C 7.484375 -2.914062 8.148438 -2.8125 8.921875 -2.71875 C 10.109375 -2.550781 11.207031 -2.375 12.21875 -2.1875 C 13.226562 -2.007812 14.109375 -1.75 14.859375 -1.40625 C 15.617188 -1.070312 16.203125 -0.613281 16.609375 -0.03125 C 17.015625 0.550781 17.21875 1.304688 17.21875 2.234375 C 17.21875 3.929688 16.535156 5.222656 15.171875 6.109375 C 13.816406 7.003906 11.882812 7.453125 9.375 7.453125 Z M 9.03125 -4.8125 C 7.582031 -4.8125 6.316406 -5.082031 5.234375 -5.625 C 4.160156 -6.175781 3.320312 -6.921875 2.71875 -7.859375 C 2.113281 -8.796875 1.8125 -9.878906 1.8125 -11.109375 C 1.8125 -12.390625 2.128906 -13.507812 2.765625 -14.46875 C 3.410156 -15.4375 4.269531 -16.1875 5.34375 -16.71875 C 6.425781 -17.257812 7.609375 -17.53125 8.890625 -17.53125 C 10.140625 -17.53125 11.300781 -17.257812 12.375 -16.71875 C 13.457031 -16.1875 14.332031 -15.425781 15 -14.4375 C 15.664062 -13.457031 16 -12.300781 16 -10.96875 C 16 -9.71875 15.703125 -8.632812 15.109375 -7.71875 C 14.515625 -6.800781 13.691406 -6.085938 12.640625 -5.578125 C 11.597656 -5.066406 10.394531 -4.8125 9.03125 -4.8125 Z M 8.921875 -8.21875 C 9.847656 -8.21875 10.535156 -8.503906 10.984375 -9.078125 C 11.441406 -9.648438 11.671875 -10.34375 11.671875 -11.15625 C 11.671875 -11.988281 11.425781 -12.664062 10.9375 -13.1875 C 10.445312 -13.707031 9.773438 -13.96875 8.921875 -13.96875 C 8.054688 -13.96875 7.375 -13.703125 6.875 -13.171875 C 6.375 -12.640625 6.125 -11.96875 6.125 -11.15625 C 6.125 -10.34375 6.359375 -9.648438 6.828125 -9.078125 C 7.296875 -8.503906 7.992188 -8.21875 8.921875 -8.21875 Z M 14.8125 -13.546875 L 11.703125 -15.578125 L 15.671875 -18.75 L 17.875 -16.0625 Z M 14.8125 -13.546875 "/></g></g></g><g fill="#335eea" fill-opacity="1"><g transform="translate(248.25188, 27.908611)"><g><path d="M 2.125 0 L 2.125 -17.171875 L 6.484375 -17.171875 L 6.484375 -13.28125 L 5.78125 -13.203125 C 6.082031 -14.253906 6.523438 -15.09375 7.109375 -15.71875 C 7.691406 -16.34375 8.363281 -16.800781 9.125 -17.09375 C 9.894531 -17.382812 10.6875 -17.53125 11.5 -17.53125 C 13.445312 -17.53125 14.972656 -16.976562 16.078125 -15.875 C 17.179688 -14.769531 17.734375 -13.21875 17.734375 -11.21875 L 17.734375 0 L 13.375 0 L 13.375 -9.609375 C 13.375 -11.054688 13.117188 -12.109375 12.609375 -12.765625 C 12.097656 -13.429688 11.296875 -13.765625 10.203125 -13.765625 C 9.367188 -13.765625 8.675781 -13.570312 8.125 -13.1875 C 7.582031 -12.800781 7.171875 -12.203125 6.890625 -11.390625 C 6.617188 -10.578125 6.484375 -9.519531 6.484375 -8.21875 L 6.484375 0 Z M 2.125 0 "/></g></g></g></svg>