<?xml version="1.0" encoding="iso-8859-1"?>
<!-- Uploaded to: SVG Repo, www.svgrepo.com, Generator: SVG Repo Mixer Tools -->
<!DOCTYPE svg PUBLIC "-//W3C//DTD SVG 1.1//EN" "http://www.w3.org/Graphics/SVG/1.1/DTD/svg11.dtd">
<svg fill="#000000" version="1.1" id="Capa_1" xmlns="http://www.w3.org/2000/svg" xmlns:xlink="http://www.w3.org/1999/xlink" 
	 width="800px" height="800px" viewBox="0 0 31.992 31.993"
	 xml:space="preserve">
<g>
	<g>
		<path d="M1.815,2.116C0.813,2.116,0,2.928,0,3.931v24.13c0,1.002,0.813,1.815,1.815,1.815h28.362c1.003,0,1.815-0.813,1.815-1.815
			V3.931c0-1.002-0.812-1.815-1.815-1.815H1.815z M29.877,27.76H2.116V4.231h27.761V27.76z"/>
		<path d="M20.238,9.788c-3.428,0-6.36,2.169-7.495,5.207c-0.325,0.87-0.503,1.811-0.503,2.793c0,4.411,3.588,8,8,8s8-3.588,8-8
			c0-4.322-3.446-7.854-7.734-7.995C20.417,9.789,20.328,9.788,20.238,9.788z M20.081,17.833l-5.979-2.529
			c0-0.001,0-0.002,0.001-0.004c0.862-2.351,3.334-4.033,5.981-4.033L20.081,17.833z"/>
		<path d="M4.914,8.712h18.807c0.576,0,1.043-0.481,1.043-1.058c0-0.577-0.467-1.058-1.043-1.058H4.914
			c-0.577,0-1.045,0.481-1.045,1.058C3.869,8.231,4.336,8.712,4.914,8.712z"/>
		<path d="M10.344,11.453H4.937c-0.577,0-1.045,0.48-1.045,1.058c0,0.578,0.468,1.058,1.045,1.058h5.408
			c0.066,0,0.13-0.012,0.193-0.023c0.197-0.037,0.373-0.135,0.514-0.265c0.207-0.191,0.338-0.471,0.338-0.775
			C11.389,11.929,10.921,11.453,10.344,11.453z"/>
		<path d="M4.915,18.423h4.331c0.577,0,1.044-0.45,1.044-1.026c0-0.577-0.468-1.027-1.044-1.027H4.915
			c-0.577,0-1.044,0.45-1.044,1.027C3.871,17.973,4.338,18.423,4.915,18.423z"/>
		<path d="M10.344,21.225H4.937c-0.577,0-1.045,0.449-1.045,1.026s0.468,1.027,1.045,1.027h5.408c0.577,0,1.045-0.45,1.045-1.027
			C11.389,21.674,10.921,21.225,10.344,21.225z"/>
	</g>
</g>
</svg>